<svg xmlns="http://www.w3.org/2000/svg" viewBox="0 0 48 48"><defs><filter id="d" width="1.15" height="1.11" x="-.08" y="-.05" color-interpolation-filters="sRGB"><feGaussianBlur stdDeviation=".37"/></filter><filter id="a" width="1.4" height="1.36" x="-.2" y="-.18" color-interpolation-filters="sRGB"><feGaussianBlur stdDeviation="1.51"/></filter><filter id="b" width="1.11" height="1.1" x="-.05" y="-.05" color-interpolation-filters="sRGB"><feGaussianBlur stdDeviation=".4"/></filter><clipPath id="c" clipPathUnits="userSpaceOnUse"><path d="M64.93-54.56c-2.55 0-4.76.84-6.63 2.5a3.68 3.68 0 0 0-.76.74 9.56 9.56 0 0 0-2.65 6.76c0 2.78.97 5.15 2.92 7.12l.06.06.02.03.06.05a9.75 9.75 0 0 0 6.98 2.78c2.53 0 4.74-.83 6.62-2.49a3.24 3.24 0 0 0 1.4-2.72c0-.93-.3-1.7-.92-2.35l-2.12-2.14c-.2-.2-.2-.41 0-.63L72.03-47c.61-.66.92-1.44.92-2.34a3.18 3.18 0 0 0-1.33-2.67 9.48 9.48 0 0 0-6.7-2.55z"/></clipPath></defs><path fill="#ff36cc" d="M35.23-53.18c-2.55 0-4.75.83-6.63 2.5a3.68 3.68 0 0 0-.76.74 9.56 9.56 0 0 0-2.65 6.76c0 2.77.97 5.14 2.92 7.12l.07.06.02.02.05.05a9.75 9.75 0 0 0 6.98 2.79c2.54 0 4.74-.83 6.62-2.5a3.24 3.24 0 0 0 1.4-2.72c0-.92-.3-1.7-.92-2.34l-2.11-2.15c-.2-.2-.2-.4 0-.63l2.11-2.14c.62-.66.93-1.44.93-2.35a3.18 3.18 0 0 0-1.33-2.66 9.48 9.48 0 0 0-6.7-2.55z" filter="url(#a)" opacity=".59" transform="matrix(1.67 0 0 1.67 -34.28 97.08)"/><path fill="#ff36cc" d="M35.23-53.78c-2.55 0-4.75.83-6.63 2.5a3.68 3.68 0 0 0-.76.74 9.56 9.56 0 0 0-2.65 6.76c0 2.77.97 5.14 2.92 7.12l.07.06.02.02.05.05a9.75 9.75 0 0 0 6.98 2.79c2.54 0 4.74-.83 6.62-2.5a3.24 3.24 0 0 0 1.4-2.72c0-.92-.3-1.7-.92-2.34l-2.11-2.15c-.2-.2-.2-.4 0-.62l2.11-2.15c.62-.66.93-1.44.93-2.35a3.18 3.18 0 0 0-1.33-2.66 9.48 9.48 0 0 0-6.7-2.55z" filter="url(#b)" transform="matrix(1.67 0 0 1.67 -34.28 97.08)"/><path fill="#d276e1" d="M24.56 40.73q-6.95 0-11.9-4.87Q7.8 30.9 7.8 23.96q0-6.87 4.88-11.75 4.94-4.94 11.89-4.94 6.88 0 11.55 4.6 1.54 1.54 1.54 3.75 0 2.2-1.54 3.74l-7.74 7.68q-1.67 1.67-3.34 1.67-2.41 0-3.75-1.34-1.33-1.33-1.33-3.54 0-2.13 1.53-3.67l1.34-1.4q.27-.2.13-.4-.2-.14-.53-.07-1.34.33-2.27 1.33-1.87 1.8-1.87 4.35 0 2.6 1.8 4.47 1.87 1.8 4.48 1.8 2.54 0 4.34-1.86 1.54-1.54 3.74-1.54t3.74 1.54q1.54 1.53 1.54 3.74 0 2.2-1.54 3.74-4.94 4.87-11.82 4.87z"/><path fill="#ab47bc" d="m32.89 24.52 3.53 3.59q1.54 1.6 1.54 3.92 0 2.31-1.65 3.97-1.66 1.6-3.92 1.6-2.37 0-3.97-1.71l-3.37-3.42q-.22-.17-.5-.17-.27 0-.43.17l-3.37 3.42q-1.65 1.7-4.02 1.7-2.27 0-3.92-1.6-1.66-1.65-1.66-3.96 0-2.32 1.6-3.92l3.48-3.59q.55-.55 0-1.04l-3.48-3.59q-1.6-1.65-1.6-3.92 0-2.37 1.66-3.97 1.65-1.6 3.92-1.6 2.37 0 4.02 1.66l3.37 3.47q.44.39.93-.05l3.37-3.42q1.6-1.66 3.97-1.66 2.26 0 3.92 1.6 1.65 1.6 1.65 3.97 0 2.27-1.54 3.92l-3.53 3.59q-.5.55 0 1.04z"/><path fill="#ff36cc" d="m70.23-52.63.13.03-.13-.03zm.28.06zm.25.08zm.2.09zm.68.4.22.2c.61.62.92 1.36.92 2.24 0 .88-.3 1.63-.92 2.24l-4.64 4.6c-.67.67-1.33 1-2 1-.96 0-1.7-.26-2.24-.8a2.87 2.87 0 0 1-.8-2.12 3 3 0 0 1 .92-2.2l.8-.84c.1-.08.13-.16.08-.24-.08-.05-.19-.06-.32-.04-.53.14-.99.4-1.36.8a3.48 3.48 0 0 0-1.12 2.6c0 1.04.36 1.94 1.08 2.68a3.72 3.72 0 0 0 2.68 1.08c1.01 0 1.88-.37 2.6-1.12a3.05 3.05 0 0 1 2.24-.92c.88 0 1.63.31 2.24.92.61.62.92 1.36.92 2.24 0 .88-.3 1.63-.92 2.24l-.45.42a3.24 3.24 0 0 0 1.4-2.71c0-.93-.31-1.7-.93-2.35l-2.11-2.14c-.2-.2-.2-.41 0-.63L72.04-47a3.3 3.3 0 0 0 .93-2.34A3.18 3.18 0 0 0 71.64-52zm-.07 14.98zm-6.9-12.59zm6.67 12.74zm-.2.12zm-.48.2zm-.33.08-.09.02.1-.02zm-.32.05h-.07.07z" clip-path="url(#c)" filter="url(#d)" transform="matrix(1.67 0 0 1.67 -83.9 98.38)"/><path fill="#f463cf" d="M33.4 10.5c.07 0 .14.02.22.04l-.22-.05zm.45.1zm.43.13zm.35.13Zm1.12.67.37.35a5.1 5.1 0 0 1 1.53 3.74 5.1 5.1 0 0 1-1.53 3.74l-7.75 7.68c-1.12 1.11-2.23 1.67-3.34 1.67-1.6 0-2.86-.44-3.75-1.33a4.79 4.79 0 0 1-1.33-3.55c0-1.42.51-2.65 1.54-3.67l1.33-1.4c.18-.14.22-.27.13-.4-.13-.1-.3-.12-.53-.07-.9.22-1.65.67-2.27 1.34a5.81 5.81 0 0 0-1.87 4.34c0 1.73.6 3.23 1.8 4.47a6.22 6.22 0 0 0 4.48 1.8c1.7 0 3.14-.62 4.34-1.86a5.1 5.1 0 0 1 3.74-1.54 5.1 5.1 0 0 1 3.74 1.54 5.1 5.1 0 0 1 1.54 3.74c0 1.47-.51 2.71-1.54 3.74l-.74.7a5.41 5.41 0 0 0 2.33-4.53c0-1.55-.52-2.85-1.55-3.92l-3.53-3.59c-.33-.33-.33-.67 0-1.04l3.53-3.59a5.55 5.55 0 0 0 1.54-3.91 5.3 5.3 0 0 0-2.21-4.45zm-.11 25.02zM24.12 15.53zm11.13 21.28zm-.35.2zm-.79.32zm-.55.15-.15.03.15-.03zm-.53.08-.12.01h.12z"/></svg>